<svg xmlns="http://www.w3.org/2000/svg" viewBox="0 0 200 200" width="200" height="200" fill="#34324E">

<path d="M6.1 0 L36.4 0 Q42.4 0 42.4 6.1L42.4 36.4 Q42.4 42.4 36.4 42.4L6.1 42.4 Q0 42.4 0 36.4L0 6.1 L0 6.1 Q0 0 6.1 0ZM6.1 12.1 L6.1 30.3 Q6.1 36.4 12.1 36.4L30.3 36.4 Q36.4 36.4 36.4 30.3L36.4 12.1 Q36.4 6.1 30.3 6.1L12.1 6.1 L12.1 6.1 Q6.1 6.1 6.1 12.1Z"/>
<path d="M62.9 0 L76.5 0 Q78.8 0 78.8 2.3L78.8 9.8 Q78.8 12.1 76.5 12.1L68.9 12.1 Q66.7 12.1 66.7 9.8L66.7 8.3 Q66.7 6.1 64.4 6.1L62.9 6.1 Q60.6 6.1 60.6 3.8L60.6 2.3 Q60.6 0 62.9 0Z"/>
<path d="M87.1 0 L94.7 0 Q97 0 97 2.3L97 9.8 Q97 12.1 99.2 12.1L100.8 12.1 Q103 12.1 103 9.8L103 8.3 Q103 6.1 105.3 6.1L106.8 6.1 Q109.1 6.1 109.1 8.3L109.1 22 Q109.1 24.2 106.8 24.2L105.3 24.2 Q103 24.2 103 22L103 20.5 Q103 18.2 100.8 18.2L99.2 18.2 Q97 18.2 97 20.5L97 22 Q97 24.2 94.7 24.2L93.2 24.2 Q90.9 24.2 90.9 22L90.9 20.5 Q90.9 18.2 88.6 18.2L87.1 18.2 Q84.8 18.2 84.8 15.9L84.8 14.4 Q84.8 12.1 87.1 12.1L88.6 12.1 Q90.9 12.1 90.9 9.8L90.9 8.3 Q90.9 6.1 88.6 6.1L87.1 6.1 Q84.8 6.1 84.8 3.8L84.8 2.3 Q84.8 0 87.1 0Z"/>
<path d="M111.4 0 L118.9 0 Q121.2 0 121.2 2.3L121.2 3.8 Q121.2 6.1 118.9 6.1L111.4 6.1 Q109.1 6.1 109.1 3.8L109.1 2.3 Q109.1 0 111.4 0Z"/>
<path d="M135.6 0 L143.2 0 Q145.5 0 145.5 2.3L145.5 3.8 Q145.5 6.1 147.7 6.1L149.2 6.1 Q151.5 6.1 151.5 8.3L151.5 9.8 Q151.5 12.1 149.2 12.1L147.7 12.1 Q145.5 12.1 145.5 14.4L145.5 22 Q145.5 24.2 143.2 24.2L135.6 24.2 Q133.3 24.2 133.3 26.5L133.3 28 Q133.3 30.3 131.1 30.3L129.5 30.3 Q127.3 30.3 127.3 28L127.3 20.5 Q127.3 18.2 129.5 18.2L137.1 18.2 Q139.4 18.2 139.4 15.9L139.4 8.3 Q139.4 6.1 137.1 6.1L135.6 6.1 Q133.3 6.1 133.3 3.8L133.3 2.3 Q133.3 0 135.6 0Z"/>
<path d="M163.6 0 L193.9 0 Q200 0 200 6.1L200 36.4 Q200 42.4 193.9 42.4L163.6 42.4 Q157.6 42.4 157.6 36.4L157.6 6.1 L157.6 6.1 Q157.6 0 163.6 0ZM163.6 12.1 L163.6 30.3 Q163.6 36.4 169.7 36.4L187.9 36.4 Q193.9 36.4 193.9 30.3L193.9 12.1 Q193.9 6.1 187.9 6.1L169.7 6.1 L169.7 6.1 Q163.6 6.1 163.6 12.1Z"/>
<path d="M129.5 6.1 L131.1 6.1 Q133.3 6.1 133.3 8.3L133.3 9.8 Q133.3 12.1 131.1 12.1L129.5 12.1 Q127.3 12.1 127.3 9.8L127.3 8.3 Q127.3 6.1 129.5 6.1Z"/>
<path d="M18.2 12.1 L24.2 12.1 Q30.3 12.1 30.3 18.2L30.3 24.2 Q30.3 30.3 24.2 30.3L18.2 30.3 Q12.1 30.3 12.1 24.2L12.1 18.2 L12.1 18.2 Q12.1 12.1 18.2 12.1Z"/>
<path d="M117.4 12.1 L118.9 12.1 Q121.2 12.1 121.2 14.4L121.2 28 Q121.2 30.3 118.9 30.3L117.4 30.3 Q115.2 30.3 115.2 28L115.2 18.2 L115.2 14.4 Q115.2 12.1 117.4 12.1Z"/>
<path d="M175.8 12.1 L181.8 12.1 Q187.9 12.1 187.9 18.2L187.9 24.2 Q187.9 30.3 181.8 30.3L175.8 30.3 Q169.7 30.3 169.7 24.2L169.7 18.2 L169.7 18.2 Q169.7 12.1 175.8 12.1Z"/>
<path d="M62.9 18.2 L64.4 18.2 Q66.7 18.2 66.7 20.5L66.7 22 Q66.7 24.2 64.4 24.2L62.9 24.2 Q60.6 24.2 60.6 22L60.6 20.5 Q60.6 18.2 62.9 18.2Z"/>
<path d="M81.1 18.2 L82.6 18.2 Q84.8 18.2 84.8 20.5L84.8 28 Q84.8 30.3 82.6 30.3L81.1 30.3 Q78.8 30.3 78.8 32.6L78.8 40.2 Q78.8 42.4 76.5 42.4L75 42.4 Q72.7 42.4 72.7 40.2L72.7 26.5 Q72.7 24.2 75 24.2L76.5 24.2 Q78.8 24.2 78.8 22L78.8 20.5 Q78.8 18.2 81.1 18.2Z"/>
<path d="M56.8 24.2 L58.3 24.2 Q60.6 24.2 60.6 26.5L60.6 28 Q60.6 30.3 62.9 30.3L64.4 30.3 Q66.7 30.3 66.7 32.6L66.7 58.3 Q66.7 60.6 68.9 60.6L70.5 60.6 Q72.7 60.6 72.7 58.3L72.7 56.8 Q72.7 54.5 75 54.5L76.5 54.5 Q78.8 54.5 78.8 56.8L78.8 76.5 Q78.8 78.8 76.5 78.8L75 78.8 Q72.7 78.8 72.7 76.5L72.7 68.9 Q72.7 66.7 70.5 66.7L56.8 66.7 Q54.5 66.7 54.5 64.4L54.5 56.8 Q54.5 54.5 52.3 54.5L50.8 54.5 Q48.5 54.5 48.5 52.3L48.5 50.8 Q48.5 48.5 50.8 48.5L52.3 48.5 Q54.5 48.5 54.5 46.2L54.5 44.7 Q54.5 42.4 56.8 42.4L58.3 42.4 Q60.6 42.4 60.6 40.2L60.6 38.6 Q60.6 36.4 58.3 36.4L56.8 36.4 Q54.5 36.4 54.5 38.6L54.5 40.2 Q54.5 42.4 52.3 42.4L50.8 42.4 Q48.5 42.4 48.5 40.2L48.5 32.6 Q48.5 30.3 50.8 30.3L52.3 30.3 Q54.5 30.3 54.5 28L54.5 26.5 Q54.5 24.2 56.8 24.2Z"/>
<path d="M99.2 24.2 L100.8 24.2 Q103 24.2 103 26.5L103 28 Q103 30.3 100.8 30.3L99.2 30.3 Q97 30.3 97 28L97 26.5 Q97 24.2 99.2 24.2Z"/>
<path d="M87.1 30.3 L88.6 30.3 Q90.9 30.3 90.9 32.6L90.9 46.2 Q90.9 48.5 88.6 48.5L87.1 48.5 Q84.8 48.5 84.8 46.2L84.8 36.4 L84.8 32.6 Q84.8 30.3 87.1 30.3Z"/>
<path d="M123.5 30.3 L125 30.3 Q127.3 30.3 127.3 32.6L127.3 40.2 Q127.3 42.4 129.5 42.4L131.1 42.4 Q133.3 42.4 133.3 40.2L133.3 32.6 Q133.3 30.3 135.6 30.3L137.1 30.3 Q139.4 30.3 139.4 32.6L139.4 46.2 Q139.4 48.5 137.1 48.5L135.6 48.5 Q133.3 48.5 133.3 50.8L133.3 52.3 Q133.3 54.5 131.1 54.5L129.5 54.5 Q127.3 54.5 127.3 52.3L127.3 50.8 Q127.3 48.5 125 48.5L123.5 48.5 Q121.2 48.5 121.2 50.8L121.2 52.3 Q121.2 54.5 118.9 54.5L117.4 54.5 Q115.2 54.5 115.2 52.3L115.2 50.8 Q115.2 48.5 112.9 48.5L105.3 48.5 Q103 48.5 103 46.2L103 44.7 Q103 42.4 105.3 42.4L106.8 42.4 Q109.1 42.4 109.1 40.2L109.1 38.6 Q109.1 36.4 111.4 36.4L112.9 36.4 Q115.2 36.4 115.2 38.6L115.2 40.2 Q115.2 42.4 117.4 42.4L118.9 42.4 Q121.2 42.4 121.2 40.2L121.2 36.4 L121.2 32.6 Q121.2 30.3 123.5 30.3Z"/>
<path d="M99.2 36.4 L100.8 36.4 Q103 36.4 103 38.6L103 40.2 Q103 42.4 100.8 42.4L99.2 42.4 Q97 42.4 97 40.2L97 38.6 Q97 36.4 99.2 36.4Z"/>
<path d="M147.7 36.4 L149.2 36.4 Q151.5 36.4 151.5 38.6L151.5 40.2 Q151.5 42.4 149.2 42.4L147.7 42.4 Q145.5 42.4 145.5 40.2L145.5 38.6 Q145.5 36.4 147.7 36.4Z"/>
<path d="M2.3 48.5 L3.8 48.5 Q6.1 48.5 6.1 50.8L6.1 58.3 Q6.1 60.6 3.8 60.6L2.3 60.6 Q0 60.6 0 58.3L0 54.5 L0 50.8 Q0 48.5 2.3 48.5Z"/>
<path d="M20.5 48.5 L22 48.5 Q24.2 48.5 24.2 50.8L24.2 58.3 Q24.2 60.6 26.5 60.6L28 60.6 Q30.3 60.6 30.3 62.9L30.3 70.5 Q30.3 72.7 32.6 72.7L40.2 72.7 Q42.4 72.7 42.4 70.5L42.4 68.9 Q42.4 66.7 40.2 66.7L38.6 66.7 Q36.4 66.7 36.4 64.4L36.4 62.9 Q36.4 60.6 38.6 60.6L46.2 60.6 Q48.5 60.6 48.5 62.9L48.5 70.5 Q48.5 72.7 50.8 72.7L52.3 72.7 Q54.5 72.7 54.5 75L54.5 76.5 Q54.5 78.8 52.3 78.8L50.8 78.8 Q48.5 78.8 48.5 81.1L48.5 82.6 Q48.5 84.8 46.2 84.8L44.7 84.8 Q42.4 84.8 42.4 82.6L42.4 81.1 Q42.4 78.8 40.2 78.8L32.6 78.8 Q30.3 78.8 30.3 81.1L30.3 82.6 Q30.3 84.8 28 84.8L26.5 84.8 Q24.2 84.8 24.2 82.6L24.2 68.9 Q24.2 66.7 22 66.7L20.5 66.7 Q18.2 66.7 18.2 64.4L18.2 62.9 Q18.2 60.6 15.9 60.6L14.4 60.6 Q12.1 60.6 12.1 58.3L12.1 56.8 Q12.1 54.5 14.4 54.5L15.9 54.5 Q18.2 54.5 18.2 52.3L18.2 50.8 Q18.2 48.5 20.5 48.5Z"/>
<path d="M32.6 48.5 L40.2 48.5 Q42.4 48.5 42.4 50.8L42.4 52.3 Q42.4 54.5 40.2 54.5L32.6 54.5 Q30.3 54.5 30.3 52.3L30.3 50.8 Q30.3 48.5 32.6 48.5Z"/>
<path d="M81.1 48.5 L82.6 48.5 Q84.8 48.5 84.8 50.8L84.8 52.3 Q84.8 54.5 82.6 54.5L81.1 54.5 Q78.8 54.5 78.8 52.3L78.8 50.8 Q78.8 48.5 81.1 48.5Z"/>
<path d="M93.2 48.5 L94.7 48.5 Q97 48.5 97 50.8L97 52.3 Q97 54.5 94.7 54.5L93.2 54.5 Q90.9 54.5 90.9 52.3L90.9 50.8 Q90.9 48.5 93.2 48.5Z"/>
<path d="M141.7 48.5 L155.3 48.5 Q157.6 48.5 157.6 50.8L157.6 52.3 Q157.6 54.5 159.8 54.5L161.4 54.5 Q163.6 54.5 163.6 52.3L163.6 50.8 Q163.6 48.5 165.9 48.5L167.4 48.5 Q169.7 48.5 169.7 50.8L169.7 58.3 Q169.7 60.6 172 60.6L173.5 60.6 Q175.8 60.6 175.8 62.9L175.8 64.4 Q175.8 66.7 178 66.7L179.5 66.7 Q181.8 66.7 181.8 68.9L181.8 82.6 Q181.8 84.8 179.5 84.8L178 84.8 Q175.8 84.8 175.8 87.1L175.8 94.7 Q175.8 97 178 97L179.5 97 Q181.8 97 181.8 99.2L181.8 106.8 Q181.8 109.1 179.5 109.1L178 109.1 Q175.8 109.1 175.8 106.8L175.8 105.3 Q175.8 103 173.5 103L172 103 Q169.7 103 169.7 100.8L169.7 99.2 Q169.7 97 167.4 97L165.9 97 Q163.6 97 163.6 99.2L163.6 100.8 Q163.6 103 161.4 103L159.8 103 Q157.6 103 157.6 100.8L157.6 93.2 Q157.6 90.9 155.3 90.9L141.7 90.9 Q139.4 90.9 139.4 88.6L139.4 75 Q139.4 72.7 141.7 72.7L143.2 72.7 Q145.5 72.7 145.5 75L145.5 76.5 Q145.5 78.8 147.7 78.8L149.2 78.8 Q151.5 78.8 151.5 76.5L151.5 75 Q151.5 72.7 153.8 72.7L155.3 72.7 Q157.6 72.7 157.6 70.5L157.6 68.9 Q157.6 66.7 159.8 66.7L161.4 66.7 Q163.6 66.7 163.6 68.9L163.6 88.6 Q163.6 90.9 165.9 90.9L167.4 90.9 Q169.7 90.9 169.7 88.6L169.7 68.9 Q169.7 66.7 167.4 66.7L165.9 66.7 Q163.6 66.7 163.6 64.4L163.6 62.9 Q163.6 60.6 161.4 60.6L147.7 60.6 Q145.5 60.6 145.5 58.3L145.5 56.8 Q145.5 54.5 143.2 54.5L141.7 54.5 Q139.4 54.5 139.4 52.3L139.4 50.8 Q139.4 48.5 141.7 48.5Z"/>
<path d="M99.2 54.5 L100.8 54.5 Q103 54.5 103 56.8L103 58.3 Q103 60.6 105.3 60.6L106.8 60.6 Q109.1 60.6 109.1 62.9L109.1 70.5 Q109.1 72.7 106.8 72.7L99.2 72.7 Q97 72.7 97 70.5L97 60.6 L97 56.8 Q97 54.5 99.2 54.5Z"/>
<path d="M123.5 54.5 L125 54.5 Q127.3 54.5 127.3 56.8L127.3 58.3 Q127.3 60.6 125 60.6L123.5 60.6 Q121.2 60.6 121.2 58.3L121.2 56.8 Q121.2 54.5 123.5 54.5Z"/>
<path d="M135.6 54.5 L137.1 54.5 Q139.4 54.5 139.4 56.8L139.4 58.3 Q139.4 60.6 137.1 60.6L135.6 60.6 Q133.3 60.6 133.3 58.3L133.3 56.8 Q133.3 54.5 135.6 54.5Z"/>
<path d="M196.2 54.5 L197.7 54.5 Q200 54.5 200 56.8L200 82.6 Q200 84.8 197.7 84.8L196.2 84.8 Q193.9 84.8 193.9 87.1L193.9 100.8 Q193.9 103 191.7 103L190.2 103 Q187.9 103 187.9 100.8L187.9 93.2 Q187.9 90.9 185.6 90.9L184.1 90.9 Q181.8 90.9 181.8 88.6L181.8 87.1 Q181.8 84.8 184.1 84.8L185.6 84.8 Q187.9 84.8 187.9 82.6L187.9 68.9 Q187.9 66.7 190.2 66.7L191.7 66.7 Q193.9 66.7 193.9 64.4L193.9 60.6 L193.9 56.8 Q193.9 54.5 196.2 54.5Z"/>
<path d="M8.3 60.6 L9.8 60.6 Q12.1 60.6 12.1 62.9L12.1 64.4 Q12.1 66.7 14.4 66.7L15.9 66.7 Q18.2 66.7 18.2 68.9L18.2 76.5 Q18.2 78.8 15.9 78.8L14.4 78.8 Q12.1 78.8 12.1 76.5L12.1 75 Q12.1 72.7 9.8 72.7L2.3 72.7 Q0 72.7 0 70.5L0 68.9 Q0 66.7 2.3 66.7L3.8 66.7 Q6.1 66.7 6.1 64.4L6.1 62.9 Q6.1 60.6 8.3 60.6Z"/>
<path d="M117.4 60.6 L118.9 60.6 Q121.2 60.6 121.2 62.9L121.2 64.4 Q121.2 66.7 123.5 66.7L137.1 66.7 Q139.4 66.7 139.4 68.9L139.4 70.5 Q139.4 72.7 137.1 72.7L135.6 72.7 Q133.3 72.7 133.3 75L133.3 82.6 Q133.3 84.8 131.1 84.8L129.5 84.8 Q127.3 84.8 127.3 82.6L127.3 75 Q127.3 72.7 125 72.7L117.4 72.7 Q115.2 72.7 115.2 70.5L115.2 66.7 L115.2 62.9 Q115.2 60.6 117.4 60.6Z"/>
<path d="M184.1 60.6 L185.6 60.6 Q187.9 60.6 187.9 62.9L187.9 64.4 Q187.9 66.7 185.6 66.7L184.1 66.7 Q181.8 66.7 181.8 64.4L181.8 62.9 Q181.8 60.6 184.1 60.6Z"/>
<path d="M87.1 66.7 L88.6 66.7 Q90.9 66.7 90.9 68.9L90.9 70.5 Q90.9 72.7 88.6 72.7L87.1 72.7 Q84.8 72.7 84.8 70.5L84.8 68.9 Q84.8 66.7 87.1 66.7Z"/>
<path d="M147.7 66.7 L149.2 66.7 Q151.5 66.7 151.5 68.9L151.5 70.5 Q151.5 72.7 149.2 72.7L147.7 72.7 Q145.5 72.7 145.5 70.5L145.5 68.9 Q145.5 66.7 147.7 66.7Z"/>
<path d="M62.9 72.7 L64.4 72.7 Q66.7 72.7 66.7 75L66.7 76.5 Q66.7 78.8 64.4 78.8L62.9 78.8 Q60.6 78.8 60.6 76.5L60.6 75 Q60.6 72.7 62.9 72.7Z"/>
<path d="M93.2 72.7 L94.7 72.7 Q97 72.7 97 75L97 76.5 Q97 78.8 99.2 78.8L100.8 78.8 Q103 78.8 103 81.1L103 82.6 Q103 84.8 100.8 84.8L93.2 84.8 Q90.9 84.8 90.9 82.6L90.9 78.8 L90.9 75 Q90.9 72.7 93.2 72.7Z"/>
<path d="M2.3 78.8 L9.8 78.8 Q12.1 78.8 12.1 81.1L12.1 82.6 Q12.1 84.8 9.8 84.8L8.3 84.8 Q6.1 84.8 6.1 87.1L6.1 88.6 Q6.1 90.9 3.8 90.9L2.3 90.9 Q0 90.9 0 88.6L0 84.8 L0 81.1 Q0 78.8 2.3 78.8Z"/>
<path d="M68.9 78.8 L70.5 78.8 Q72.7 78.8 72.7 81.1L72.7 82.6 Q72.7 84.8 70.5 84.8L68.9 84.8 Q66.7 84.8 66.7 82.6L66.7 81.1 Q66.7 78.8 68.9 78.8Z"/>
<path d="M81.1 78.8 L82.6 78.8 Q84.8 78.8 84.8 81.1L84.8 82.6 Q84.8 84.8 87.1 84.8L88.6 84.8 Q90.9 84.8 90.9 87.1L90.9 88.6 Q90.9 90.9 88.6 90.9L81.1 90.9 Q78.8 90.9 78.8 88.6L78.8 84.8 L78.8 81.1 Q78.8 78.8 81.1 78.8Z"/>
<path d="M20.5 84.8 L22 84.8 Q24.2 84.8 24.2 87.1L24.2 88.6 Q24.2 90.9 26.5 90.9L28 90.9 Q30.3 90.9 30.3 93.2L30.3 94.7 Q30.3 97 28 97L20.5 97 Q18.2 97 18.2 94.7L18.2 90.9 L18.2 87.1 Q18.2 84.8 20.5 84.8Z"/>
<path d="M32.6 84.8 L40.2 84.8 Q42.4 84.8 42.4 87.1L42.4 88.6 Q42.4 90.9 40.2 90.9L32.6 90.9 Q30.3 90.9 30.3 88.6L30.3 87.1 Q30.3 84.8 32.6 84.8Z"/>
<path d="M56.8 84.8 L64.4 84.8 Q66.7 84.8 66.7 87.1L66.7 88.6 Q66.7 90.9 64.4 90.9L62.9 90.9 Q60.6 90.9 60.6 93.2L60.6 94.7 Q60.6 97 58.3 97L50.8 97 Q48.5 97 48.5 94.7L48.5 93.2 Q48.5 90.9 50.8 90.9L52.3 90.9 Q54.5 90.9 54.5 88.6L54.5 87.1 Q54.5 84.8 56.8 84.8Z"/>
<path d="M123.5 84.8 L125 84.8 Q127.3 84.8 127.3 87.1L127.3 88.6 Q127.3 90.9 125 90.9L123.5 90.9 Q121.2 90.9 121.2 88.6L121.2 87.1 Q121.2 84.8 123.5 84.8Z"/>
<path d="M68.9 90.9 L76.5 90.9 Q78.8 90.9 78.8 93.2L78.8 94.7 Q78.8 97 76.5 97L75 97 Q72.7 97 72.7 99.2L72.7 106.8 Q72.7 109.1 70.5 109.1L62.9 109.1 Q60.6 109.1 60.6 106.8L60.6 99.2 Q60.6 97 62.9 97L64.4 97 Q66.7 97 66.7 94.7L66.7 93.2 Q66.7 90.9 68.9 90.9Z"/>
<path d="M93.2 90.9 L94.7 90.9 Q97 90.9 97 93.2L97 94.7 Q97 97 94.7 97L93.2 97 Q90.9 97 90.9 94.7L90.9 93.2 Q90.9 90.9 93.2 90.9Z"/>
<path d="M105.3 90.9 L106.8 90.9 Q109.1 90.9 109.1 93.2L109.1 100.8 Q109.1 103 106.8 103L105.3 103 Q103 103 103 100.8L103 97 L103 93.2 Q103 90.9 105.3 90.9Z"/>
<path d="M117.4 90.9 L118.9 90.9 Q121.2 90.9 121.2 93.2L121.2 94.7 Q121.2 97 123.5 97L125 97 Q127.3 97 127.3 94.7L127.3 93.2 Q127.3 90.9 129.5 90.9L131.1 90.9 Q133.3 90.9 133.3 93.2L133.3 100.8 Q133.3 103 131.1 103L117.4 103 Q115.2 103 115.2 100.8L115.2 97 L115.2 93.2 Q115.2 90.9 117.4 90.9Z"/>
<path d="M2.3 97 L3.8 97 Q6.1 97 6.1 99.2L6.1 100.8 Q6.1 103 3.8 103L2.3 103 Q0 103 0 100.8L0 99.2 Q0 97 2.3 97Z"/>
<path d="M32.6 97 L46.2 97 Q48.5 97 48.5 99.2L48.5 100.8 Q48.5 103 50.8 103L52.3 103 Q54.5 103 54.5 105.3L54.5 112.9 Q54.5 115.2 52.3 115.2L50.8 115.2 Q48.5 115.2 48.5 112.9L48.5 111.4 Q48.5 109.1 46.2 109.1L44.7 109.1 Q42.4 109.1 42.4 106.8L42.4 105.3 Q42.4 103 40.2 103L32.6 103 Q30.3 103 30.3 100.8L30.3 99.2 Q30.3 97 32.6 97Z"/>
<path d="M81.1 97 L82.6 97 Q84.8 97 84.8 99.2L84.8 106.8 Q84.8 109.1 82.6 109.1L81.1 109.1 Q78.8 109.1 78.8 106.8L78.8 103 L78.8 99.2 Q78.8 97 81.1 97Z"/>
<path d="M141.7 97 L149.2 97 Q151.5 97 151.5 99.2L151.5 106.8 Q151.5 109.1 149.2 109.1L141.7 109.1 Q139.4 109.1 139.4 106.8L139.4 103 L139.4 99.2 Q139.4 97 141.7 97Z"/>
<path d="M8.3 103 L15.9 103 Q18.2 103 18.2 105.3L18.2 106.8 Q18.2 109.1 15.9 109.1L14.4 109.1 Q12.1 109.1 12.1 111.4L12.1 112.9 Q12.1 115.2 9.8 115.2L8.3 115.2 Q6.1 115.2 6.1 112.9L6.1 109.1 L6.1 105.3 Q6.1 103 8.3 103Z"/>
<path d="M26.5 103 L28 103 Q30.3 103 30.3 105.3L30.3 106.8 Q30.3 109.1 28 109.1L26.5 109.1 Q24.2 109.1 24.2 106.8L24.2 105.3 Q24.2 103 26.5 103Z"/>
<path d="M165.9 103 L167.4 103 Q169.7 103 169.7 105.3L169.7 106.8 Q169.7 109.1 167.4 109.1L165.9 109.1 Q163.6 109.1 163.6 106.8L163.6 105.3 Q163.6 103 165.9 103Z"/>
<path d="M32.6 109.1 L40.2 109.1 Q42.4 109.1 42.4 111.4L42.4 112.9 Q42.4 115.2 40.2 115.2L38.6 115.2 Q36.4 115.2 36.4 117.4L36.4 118.9 Q36.4 121.2 34.1 121.2L32.6 121.2 Q30.3 121.2 30.3 123.5L30.3 131.1 Q30.3 133.3 28 133.3L26.5 133.3 Q24.2 133.3 24.2 135.6L24.2 137.1 Q24.2 139.4 22 139.4L20.5 139.4 Q18.2 139.4 18.2 141.7L18.2 149.2 Q18.2 151.5 15.9 151.5L14.4 151.5 Q12.1 151.5 12.1 149.2L12.1 147.7 Q12.1 145.5 9.8 145.5L8.3 145.5 Q6.1 145.5 6.1 143.2L6.1 141.7 Q6.1 139.4 3.8 139.4L2.3 139.4 Q0 139.4 0 137.1L0 135.6 Q0 133.3 2.3 133.3L3.8 133.3 Q6.1 133.3 6.1 131.1L6.1 129.5 Q6.1 127.3 8.3 127.3L15.9 127.3 Q18.2 127.3 18.2 125L18.2 123.5 Q18.2 121.2 15.9 121.2L14.4 121.2 Q12.1 121.2 12.1 118.9L12.1 117.4 Q12.1 115.2 14.4 115.2L28 115.2 Q30.3 115.2 30.3 112.9L30.3 111.4 Q30.3 109.1 32.6 109.1Z"/>
<path d="M75 109.1 L76.5 109.1 Q78.8 109.1 78.8 111.4L78.8 112.9 Q78.8 115.2 76.5 115.2L75 115.2 Q72.7 115.2 72.7 112.9L72.7 111.4 Q72.7 109.1 75 109.1Z"/>
<path d="M111.4 109.1 L112.9 109.1 Q115.2 109.1 115.2 111.4L115.2 112.9 Q115.2 115.2 117.4 115.2L118.9 115.2 Q121.2 115.2 121.2 112.9L121.2 111.4 Q121.2 109.1 123.5 109.1L137.1 109.1 Q139.4 109.1 139.4 111.4L139.4 112.9 Q139.4 115.2 141.7 115.2L143.2 115.2 Q145.5 115.2 145.5 117.4L145.5 118.9 Q145.5 121.2 143.2 121.2L141.7 121.2 Q139.4 121.2 139.4 123.5L139.4 125 Q139.4 127.3 137.1 127.3L135.6 127.3 Q133.3 127.3 133.3 125L133.3 123.5 Q133.3 121.2 131.1 121.2L117.4 121.2 Q115.2 121.2 115.2 123.5L115.2 125 Q115.2 127.3 117.4 127.3L125 127.3 Q127.3 127.3 127.3 129.5L127.3 131.1 Q127.3 133.3 129.5 133.3L137.1 133.3 Q139.4 133.3 139.4 135.6L139.4 137.1 Q139.4 139.4 137.1 139.4L135.6 139.4 Q133.3 139.4 133.3 141.7L133.3 149.2 Q133.3 151.5 131.1 151.5L129.5 151.5 Q127.3 151.5 127.3 153.8L127.3 155.3 Q127.3 157.6 125 157.6L117.4 157.6 Q115.2 157.6 115.2 155.3L115.2 153.8 Q115.2 151.5 112.9 151.5L105.3 151.5 Q103 151.5 103 149.2L103 147.7 Q103 145.5 105.3 145.5L106.8 145.5 Q109.1 145.5 109.1 143.2L109.1 141.7 Q109.1 139.4 106.8 139.4L105.3 139.4 Q103 139.4 103 137.1L103 135.6 Q103 133.3 105.3 133.3L106.8 133.3 Q109.1 133.3 109.1 131.1L109.1 129.5 Q109.1 127.3 106.8 127.3L105.3 127.3 Q103 127.3 103 129.5L103 131.1 Q103 133.3 100.8 133.3L99.2 133.3 Q97 133.3 97 135.6L97 137.1 Q97 139.4 94.7 139.4L93.2 139.4 Q90.9 139.4 90.9 137.1L90.9 129.5 Q90.9 127.3 93.2 127.3L94.7 127.3 Q97 127.3 97 125L97 123.5 Q97 121.2 99.2 121.2L100.8 121.2 Q103 121.2 103 118.9L103 117.4 Q103 115.2 105.3 115.2L106.8 115.2 Q109.1 115.2 109.1 112.9L109.1 111.4 Q109.1 109.1 111.4 109.1ZM115.2 135.6 L115.2 143.2 Q115.2 145.5 117.4 145.5L125 145.5 Q127.3 145.5 127.3 143.2L127.3 141.7 Q127.3 139.4 125 139.4L123.5 139.4 Q121.2 139.4 121.2 137.1L121.2 135.6 Q121.2 133.3 118.9 133.3L117.4 133.3 Q115.2 133.3 115.2 135.6Z"/>
<path d="M184.1 109.1 L197.7 109.1 Q200 109.1 200 111.4L200 112.9 Q200 115.2 197.7 115.2L196.2 115.2 Q193.9 115.2 193.9 117.4L193.9 118.9 Q193.9 121.2 191.7 121.2L190.2 121.2 Q187.9 121.2 187.9 118.9L187.9 117.4 Q187.9 115.2 185.6 115.2L184.1 115.2 Q181.8 115.2 181.8 112.9L181.8 111.4 Q181.8 109.1 184.1 109.1Z"/>
<path d="M44.7 115.2 L46.2 115.2 Q48.5 115.2 48.5 117.4L48.5 118.9 Q48.5 121.2 46.2 121.2L44.7 121.2 Q42.4 121.2 42.4 118.9L42.4 117.4 Q42.4 115.2 44.7 115.2Z"/>
<path d="M68.9 115.2 L70.5 115.2 Q72.7 115.2 72.7 117.4L72.7 137.1 Q72.7 139.4 70.5 139.4L68.9 139.4 Q66.7 139.4 66.7 137.1L66.7 135.6 Q66.7 133.3 64.4 133.3L62.9 133.3 Q60.6 133.3 60.6 131.1L60.6 123.5 Q60.6 121.2 62.9 121.2L64.4 121.2 Q66.7 121.2 66.7 118.9L66.7 117.4 Q66.7 115.2 68.9 115.2Z"/>
<path d="M87.1 115.2 L94.7 115.2 Q97 115.2 97 117.4L97 118.9 Q97 121.2 94.7 121.2L93.2 121.2 Q90.9 121.2 90.9 123.5L90.9 125 Q90.9 127.3 88.6 127.3L81.1 127.3 Q78.8 127.3 78.8 125L78.8 123.5 Q78.8 121.2 81.1 121.2L82.6 121.2 Q84.8 121.2 84.8 118.9L84.8 117.4 Q84.8 115.2 87.1 115.2Z"/>
<path d="M165.9 115.2 L167.4 115.2 Q169.7 115.2 169.7 117.4L169.7 118.9 Q169.7 121.2 172 121.2L173.5 121.2 Q175.8 121.2 175.8 123.5L175.8 125 Q175.8 127.3 173.5 127.3L165.9 127.3 Q163.6 127.3 163.6 125L163.6 121.2 L163.6 117.4 Q163.6 115.2 165.9 115.2Z"/>
<path d="M38.6 121.2 L40.2 121.2 Q42.4 121.2 42.4 123.5L42.4 125 Q42.4 127.3 40.2 127.3L38.6 127.3 Q36.4 127.3 36.4 125L36.4 123.5 Q36.4 121.2 38.6 121.2Z"/>
<path d="M153.8 121.2 L155.3 121.2 Q157.6 121.2 157.6 123.5L157.6 131.1 Q157.6 133.3 159.8 133.3L167.4 133.3 Q169.7 133.3 169.7 135.6L169.7 137.1 Q169.7 139.4 167.4 139.4L165.9 139.4 Q163.6 139.4 163.6 141.7L163.6 143.2 Q163.6 145.5 165.9 145.5L173.5 145.5 Q175.8 145.5 175.8 147.7L175.8 149.2 Q175.8 151.5 178 151.5L179.5 151.5 Q181.8 151.5 181.8 153.8L181.8 155.3 Q181.8 157.6 184.1 157.6L185.6 157.6 Q187.9 157.6 187.9 155.3L187.9 153.8 Q187.9 151.5 185.6 151.5L184.1 151.5 Q181.8 151.5 181.8 149.2L181.8 147.7 Q181.8 145.5 184.1 145.5L191.7 145.5 Q193.9 145.5 193.9 147.7L193.9 161.4 Q193.9 163.6 191.7 163.6L178 163.6 Q175.8 163.6 175.8 165.9L175.8 167.4 Q175.8 169.7 178 169.7L179.5 169.7 Q181.8 169.7 181.8 172L181.8 173.5 Q181.8 175.8 179.5 175.8L178 175.8 Q175.8 175.8 175.8 178L175.8 185.6 Q175.8 187.9 173.5 187.9L172 187.9 Q169.7 187.9 169.7 185.6L169.7 178 Q169.7 175.8 167.4 175.8L165.9 175.8 Q163.6 175.8 163.6 178L163.6 179.5 Q163.6 181.8 161.4 181.8L159.8 181.8 Q157.6 181.8 157.6 179.5L157.6 178 Q157.6 175.8 155.3 175.8L147.7 175.8 Q145.5 175.8 145.5 173.5L145.5 153.8 Q145.5 151.5 143.2 151.5L141.7 151.5 Q139.4 151.5 139.4 149.2L139.4 141.7 Q139.4 139.4 141.7 139.4L143.2 139.4 Q145.5 139.4 145.5 141.7L145.5 143.2 Q145.5 145.5 147.7 145.5L149.2 145.5 Q151.5 145.5 151.5 143.2L151.5 141.7 Q151.5 139.4 149.2 139.4L147.7 139.4 Q145.5 139.4 145.5 137.1L145.5 135.6 Q145.5 133.3 143.2 133.3L141.7 133.3 Q139.4 133.3 139.4 131.1L139.4 129.5 Q139.4 127.3 141.7 127.3L149.2 127.3 Q151.5 127.3 151.5 125L151.5 123.5 Q151.5 121.2 153.8 121.2ZM151.5 153.8 L151.5 167.4 Q151.5 169.7 153.8 169.7L167.4 169.7 Q169.7 169.7 169.7 167.4L169.7 153.8 Q169.7 151.5 167.4 151.5L157.6 151.5 L153.8 151.5 Q151.5 151.5 151.5 153.8Z"/>
<path d="M196.2 121.2 L197.7 121.2 Q200 121.2 200 123.5L200 137.1 Q200 139.4 197.7 139.4L196.2 139.4 Q193.9 139.4 193.9 137.1L193.9 135.6 Q193.9 133.3 191.7 133.3L190.2 133.3 Q187.9 133.3 187.9 131.1L187.9 129.5 Q187.9 127.3 190.2 127.3L191.7 127.3 Q193.9 127.3 193.9 125L193.9 123.5 Q193.9 121.2 196.2 121.2Z"/>
<path d="M44.7 127.3 L52.3 127.3 Q54.5 127.3 54.5 129.5L54.5 131.1 Q54.5 133.3 52.3 133.3L50.8 133.3 Q48.5 133.3 48.5 135.6L48.5 143.2 Q48.5 145.5 50.8 145.5L52.3 145.5 Q54.5 145.5 54.5 143.2L54.5 141.7 Q54.5 139.4 56.8 139.4L64.4 139.4 Q66.7 139.4 66.7 141.7L66.7 161.4 Q66.7 163.6 64.4 163.6L62.9 163.6 Q60.6 163.6 60.6 165.9L60.6 167.4 Q60.6 169.7 58.3 169.7L50.8 169.7 Q48.5 169.7 48.5 167.4L48.5 165.9 Q48.5 163.6 50.8 163.6L52.3 163.6 Q54.5 163.6 54.5 161.4L54.5 159.8 Q54.5 157.6 56.8 157.6L58.3 157.6 Q60.6 157.6 60.6 155.3L60.6 153.8 Q60.6 151.5 58.3 151.5L56.8 151.5 Q54.5 151.5 54.5 153.8L54.5 155.3 Q54.5 157.6 52.3 157.6L50.8 157.6 Q48.5 157.6 48.5 155.3L48.5 153.8 Q48.5 151.5 46.2 151.5L32.6 151.5 Q30.3 151.5 30.3 149.2L30.3 147.7 Q30.3 145.5 32.6 145.5L40.2 145.5 Q42.4 145.5 42.4 143.2L42.4 141.7 Q42.4 139.4 40.2 139.4L32.6 139.4 Q30.3 139.4 30.3 137.1L30.3 135.6 Q30.3 133.3 32.6 133.3L40.2 133.3 Q42.4 133.3 42.4 131.1L42.4 129.5 Q42.4 127.3 44.7 127.3Z"/>
<path d="M178 127.3 L179.5 127.3 Q181.8 127.3 181.8 129.5L181.8 131.1 Q181.8 133.3 179.5 133.3L178 133.3 Q175.8 133.3 175.8 131.1L175.8 129.5 Q175.8 127.3 178 127.3Z"/>
<path d="M81.1 133.3 L82.6 133.3 Q84.8 133.3 84.8 135.6L84.8 137.1 Q84.8 139.4 82.6 139.4L81.1 139.4 Q78.8 139.4 78.8 137.1L78.8 135.6 Q78.8 133.3 81.1 133.3Z"/>
<path d="M99.2 139.4 L100.8 139.4 Q103 139.4 103 141.7L103 143.2 Q103 145.5 100.8 145.5L99.2 145.5 Q97 145.5 97 143.2L97 141.7 Q97 139.4 99.2 139.4Z"/>
<path d="M178 139.4 L179.5 139.4 Q181.8 139.4 181.8 141.7L181.8 143.2 Q181.8 145.5 179.5 145.5L178 145.5 Q175.8 145.5 175.8 143.2L175.8 141.7 Q175.8 139.4 178 139.4Z"/>
<path d="M2.3 145.5 L3.8 145.5 Q6.1 145.5 6.1 147.7L6.1 149.2 Q6.1 151.5 3.8 151.5L2.3 151.5 Q0 151.5 0 149.2L0 147.7 Q0 145.5 2.3 145.5Z"/>
<path d="M75 145.5 L82.6 145.5 Q84.8 145.5 84.8 147.7L84.8 149.2 Q84.8 151.5 82.6 151.5L75 151.5 Q72.7 151.5 72.7 149.2L72.7 147.7 Q72.7 145.5 75 145.5Z"/>
<path d="M93.2 145.5 L94.7 145.5 Q97 145.5 97 147.7L97 149.2 Q97 151.5 94.7 151.5L93.2 151.5 Q90.9 151.5 90.9 149.2L90.9 147.7 Q90.9 145.5 93.2 145.5Z"/>
<path d="M135.6 151.5 L137.1 151.5 Q139.4 151.5 139.4 153.8L139.4 155.3 Q139.4 157.6 137.1 157.6L135.6 157.6 Q133.3 157.6 133.3 155.3L133.3 153.8 Q133.3 151.5 135.6 151.5Z"/>
<path d="M6.1 157.6 L36.4 157.6 Q42.4 157.6 42.4 163.6L42.4 193.9 Q42.4 200 36.4 200L6.1 200 Q0 200 0 193.9L0 163.6 L0 163.6 Q0 157.6 6.1 157.6ZM6.1 169.7 L6.1 187.9 Q6.1 193.9 12.1 193.9L30.3 193.9 Q36.4 193.9 36.4 187.9L36.4 169.7 Q36.4 163.6 30.3 163.6L12.1 163.6 L12.1 163.6 Q6.1 163.6 6.1 169.7Z"/>
<path d="M75 157.6 L76.5 157.6 Q78.8 157.6 78.8 159.8L78.8 161.4 Q78.8 163.6 81.1 163.6L82.6 163.6 Q84.8 163.6 84.8 165.9L84.8 167.4 Q84.8 169.7 82.6 169.7L81.1 169.7 Q78.8 169.7 78.8 172L78.8 173.5 Q78.8 175.8 76.5 175.8L75 175.8 Q72.7 175.8 72.7 173.5L72.7 163.6 L72.7 159.8 Q72.7 157.6 75 157.6Z"/>
<path d="M87.1 157.6 L88.6 157.6 Q90.9 157.6 90.9 159.8L90.9 161.4 Q90.9 163.6 88.6 163.6L87.1 163.6 Q84.8 163.6 84.8 161.4L84.8 159.8 Q84.8 157.6 87.1 157.6Z"/>
<path d="M99.2 157.6 L100.8 157.6 Q103 157.6 103 159.8L103 161.4 Q103 163.6 100.8 163.6L99.2 163.6 Q97 163.6 97 161.4L97 159.8 Q97 157.6 99.2 157.6Z"/>
<path d="M129.5 157.6 L131.1 157.6 Q133.3 157.6 133.3 159.8L133.3 161.4 Q133.3 163.6 131.1 163.6L129.5 163.6 Q127.3 163.6 127.3 161.4L127.3 159.8 Q127.3 157.6 129.5 157.6Z"/>
<path d="M159.8 157.6 L161.4 157.6 Q163.6 157.6 163.6 159.8L163.6 161.4 Q163.6 163.6 161.4 163.6L159.8 163.6 Q157.6 163.6 157.6 161.4L157.6 159.8 Q157.6 157.6 159.8 157.6Z"/>
<path d="M117.4 163.6 L125 163.6 Q127.3 163.6 127.3 165.9L127.3 167.4 Q127.3 169.7 125 169.7L117.4 169.7 Q115.2 169.7 115.2 167.4L115.2 165.9 Q115.2 163.6 117.4 163.6Z"/>
<path d="M196.2 163.6 L197.7 163.6 Q200 163.6 200 165.9L200 167.4 Q200 169.7 197.7 169.7L196.2 169.7 Q193.9 169.7 193.9 167.4L193.9 165.9 Q193.9 163.6 196.2 163.6Z"/>
<path d="M18.2 169.7 L24.2 169.7 Q30.3 169.7 30.3 175.8L30.3 181.8 Q30.3 187.9 24.2 187.9L18.2 187.9 Q12.1 187.9 12.1 181.8L12.1 175.8 L12.1 175.8 Q12.1 169.7 18.2 169.7Z"/>
<path d="M62.9 169.7 L64.4 169.7 Q66.7 169.7 66.7 172L66.7 185.6 Q66.7 187.9 68.9 187.9L70.5 187.9 Q72.7 187.9 72.7 190.2L72.7 191.7 Q72.7 193.9 70.5 193.9L68.9 193.9 Q66.7 193.9 66.7 196.2L66.7 197.7 Q66.7 200 64.4 200L50.8 200 Q48.5 200 48.5 197.7L48.5 196.2 Q48.5 193.9 50.8 193.9L52.3 193.9 Q54.5 193.9 54.5 191.7L54.5 184.1 Q54.5 181.8 52.3 181.8L50.8 181.8 Q48.5 181.8 48.5 179.5L48.5 178 Q48.5 175.8 50.8 175.8L58.3 175.8 Q60.6 175.8 60.6 173.5L60.6 172 Q60.6 169.7 62.9 169.7Z"/>
<path d="M99.2 169.7 L100.8 169.7 Q103 169.7 103 172L103 173.5 Q103 175.8 100.8 175.8L99.2 175.8 Q97 175.8 97 173.5L97 172 Q97 169.7 99.2 169.7Z"/>
<path d="M135.6 169.7 L137.1 169.7 Q139.4 169.7 139.4 172L139.4 173.5 Q139.4 175.8 137.1 175.8L135.6 175.8 Q133.3 175.8 133.3 173.5L133.3 172 Q133.3 169.7 135.6 169.7Z"/>
<path d="M93.2 175.8 L94.7 175.8 Q97 175.8 97 178L97 179.5 Q97 181.8 94.7 181.8L93.2 181.8 Q90.9 181.8 90.9 179.5L90.9 178 Q90.9 175.8 93.2 175.8Z"/>
<path d="M105.3 175.8 L106.8 175.8 Q109.1 175.8 109.1 178L109.1 191.7 Q109.1 193.9 106.8 193.9L87.1 193.9 Q84.8 193.9 84.8 196.2L84.8 197.7 Q84.8 200 82.6 200L81.1 200 Q78.8 200 78.8 197.7L78.8 190.2 Q78.8 187.9 81.1 187.9L82.6 187.9 Q84.8 187.9 84.8 185.6L84.8 184.1 Q84.8 181.8 87.1 181.8L88.6 181.8 Q90.9 181.8 90.9 184.1L90.9 185.6 Q90.9 187.9 93.2 187.9L100.8 187.9 Q103 187.9 103 185.6L103 181.8 L103 178 Q103 175.8 105.3 175.8Z"/>
<path d="M117.4 175.8 L131.1 175.8 Q133.3 175.8 133.3 178L133.3 179.5 Q133.3 181.8 131.1 181.8L117.4 181.8 Q115.2 181.8 115.2 179.5L115.2 178 Q115.2 175.8 117.4 175.8Z"/>
<path d="M141.7 175.8 L143.2 175.8 Q145.5 175.8 145.5 178L145.5 179.5 Q145.5 181.8 143.2 181.8L141.7 181.8 Q139.4 181.8 139.4 179.5L139.4 178 Q139.4 175.8 141.7 175.8Z"/>
<path d="M184.1 175.8 L191.7 175.8 Q193.9 175.8 193.9 178L193.9 179.5 Q193.9 181.8 191.7 181.8L184.1 181.8 Q181.8 181.8 181.8 179.5L181.8 178 Q181.8 175.8 184.1 175.8Z"/>
<path d="M75 181.8 L76.5 181.8 Q78.8 181.8 78.8 184.1L78.8 185.6 Q78.8 187.9 76.5 187.9L75 187.9 Q72.7 187.9 72.7 185.6L72.7 184.1 Q72.7 181.8 75 181.8Z"/>
<path d="M135.6 181.8 L137.1 181.8 Q139.4 181.8 139.4 184.1L139.4 185.6 Q139.4 187.9 137.1 187.9L135.6 187.9 Q133.3 187.9 133.3 185.6L133.3 184.1 Q133.3 181.8 135.6 181.8Z"/>
<path d="M147.7 181.8 L149.2 181.8 Q151.5 181.8 151.5 184.1L151.5 191.7 Q151.5 193.9 153.8 193.9L155.3 193.9 Q157.6 193.9 157.6 196.2L157.6 197.7 Q157.6 200 155.3 200L147.7 200 Q145.5 200 145.5 197.7L145.5 196.2 Q145.5 193.9 143.2 193.9L141.7 193.9 Q139.4 193.9 139.4 191.7L139.4 190.2 Q139.4 187.9 141.7 187.9L143.2 187.9 Q145.5 187.9 145.5 185.6L145.5 184.1 Q145.5 181.8 147.7 181.8Z"/>
<path d="M196.2 181.8 L197.7 181.8 Q200 181.8 200 184.1L200 185.6 Q200 187.9 197.7 187.9L196.2 187.9 Q193.9 187.9 193.9 185.6L193.9 184.1 Q193.9 181.8 196.2 181.8Z"/>
<path d="M129.5 187.9 L131.1 187.9 Q133.3 187.9 133.3 190.2L133.3 197.7 Q133.3 200 131.1 200L129.5 200 Q127.3 200 127.3 197.7L127.3 193.9 L127.3 190.2 Q127.3 187.9 129.5 187.9Z"/>
<path d="M159.8 187.9 L161.4 187.9 Q163.6 187.9 163.6 190.2L163.6 191.7 Q163.6 193.9 161.4 193.9L159.8 193.9 Q157.6 193.9 157.6 191.7L157.6 190.2 Q157.6 187.9 159.8 187.9Z"/>
<path d="M172 193.9 L173.5 193.9 Q175.8 193.9 175.8 196.2L175.8 197.7 Q175.8 200 173.5 200L172 200 Q169.7 200 169.7 197.7L169.7 196.2 Q169.7 193.9 172 193.9Z"/>
<path d="M190.2 193.9 L191.7 193.9 Q193.9 193.9 193.9 196.2L193.9 197.7 Q193.9 200 191.7 200L190.2 200 Q187.9 200 187.9 197.7L187.9 196.2 Q187.9 193.9 190.2 193.9Z"/>

</svg>